<svg width="50" height="50" viewBox="0 0 50 50" fill="none" xmlns="http://www.w3.org/2000/svg">
<circle cx="25" cy="25" r="25" fill="white"/>
<path fill-rule="evenodd" clip-rule="evenodd" d="M19.6405 12.078C21.0267 12.0142 21.4687 12 25 12C28.5313 12 28.9733 12.0154 30.3584 12.078C31.7435 12.1406 32.6889 12.3616 33.5162 12.6819C34.3825 13.0093 35.1684 13.521 35.8184 14.1828C36.4802 14.8316 36.9907 15.6164 37.3169 16.4838C37.6384 17.3111 37.8582 18.2565 37.922 19.6393C37.9858 21.0279 38 21.4699 38 25C38 28.5313 37.9846 28.9733 37.922 30.3595C37.8594 31.7423 37.6384 32.6877 37.3169 33.515C36.9907 34.3826 36.4793 35.1686 35.8184 35.8184C35.1684 36.4802 34.3825 36.9907 33.5162 37.3169C32.6889 37.6384 31.7435 37.8582 30.3607 37.922C28.9733 37.9858 28.5313 38 25 38C21.4687 38 21.0267 37.9846 19.6405 37.922C18.2577 37.8594 17.3123 37.6384 16.485 37.3169C15.6175 36.9907 14.8314 36.4793 14.1816 35.8184C13.5203 35.1692 13.0085 34.3835 12.6819 33.5162C12.3616 32.6889 12.1418 31.7435 12.078 30.3607C12.0142 28.9721 12 28.5301 12 25C12 21.4687 12.0154 21.0267 12.078 19.6416C12.1406 18.2565 12.3616 17.3111 12.6819 16.4838C13.0089 15.6165 13.5211 14.8308 14.1828 14.1816C14.8317 13.5204 15.6169 13.0086 16.4838 12.6819C17.3111 12.3616 18.2565 12.1418 19.6393 12.078H19.6405ZM30.2532 14.418C28.8823 14.3554 28.471 14.3424 25 14.3424C21.529 14.3424 21.1177 14.3554 19.7468 14.418C18.4787 14.4759 17.7909 14.6875 17.3324 14.8659C16.7261 15.1023 16.2924 15.3824 15.8374 15.8374C15.4061 16.257 15.0741 16.7678 14.8659 17.3324C14.6875 17.7909 14.4759 18.4787 14.418 19.7468C14.3554 21.1177 14.3424 21.529 14.3424 25C14.3424 28.471 14.3554 28.8823 14.418 30.2532C14.4759 31.5213 14.6875 32.2091 14.8659 32.6676C15.0739 33.2314 15.406 33.7431 15.8374 34.1626C16.2569 34.594 16.7686 34.9261 17.3324 35.1341C17.7909 35.3125 18.4787 35.5241 19.7468 35.582C21.1177 35.6446 21.5278 35.6576 25 35.6576C28.4722 35.6576 28.8823 35.6446 30.2532 35.582C31.5213 35.5241 32.2091 35.3125 32.6676 35.1341C33.2739 34.8977 33.7076 34.6176 34.1626 34.1626C34.594 33.7431 34.9261 33.2314 35.1341 32.6676C35.3125 32.2091 35.5241 31.5213 35.582 30.2532C35.6446 28.8823 35.6576 28.471 35.6576 25C35.6576 21.529 35.6446 21.1177 35.582 19.7468C35.5241 18.4787 35.3125 17.7909 35.1341 17.3324C34.8977 16.7261 34.6176 16.2924 34.1626 15.8374C33.743 15.4061 33.2322 15.0742 32.6676 14.8659C32.2091 14.6875 31.5213 14.4759 30.2532 14.418ZM23.3395 29.0075C24.2669 29.3936 25.2994 29.4457 26.2609 29.1549C27.2224 28.8642 28.0531 28.2487 28.6112 27.4136C29.1693 26.5784 29.4201 25.5754 29.3208 24.5759C29.2215 23.5763 28.7783 22.6422 28.0668 21.9332C27.6133 21.4799 27.0649 21.1329 26.4611 20.917C25.8574 20.7011 25.2132 20.6218 24.5751 20.6847C23.937 20.7477 23.3208 20.9513 22.7709 21.281C22.2209 21.6106 21.7509 22.0582 21.3946 22.5913C21.0384 23.1244 20.8048 23.7299 20.7106 24.3641C20.6165 24.9984 20.6641 25.6456 20.8501 26.2592C21.0361 26.8729 21.3558 27.4376 21.7863 27.9129C22.2168 28.3881 22.7472 28.7619 23.3395 29.0075ZM20.2751 20.2751C20.8956 19.6546 21.6322 19.1624 22.4429 18.8266C23.2536 18.4908 24.1225 18.318 25 18.318C25.8775 18.318 26.7464 18.4908 27.5571 18.8266C28.3678 19.1624 29.1044 19.6546 29.7249 20.2751C30.3454 20.8956 30.8376 21.6322 31.1734 22.4429C31.5092 23.2536 31.682 24.1225 31.682 25C31.682 25.8775 31.5092 26.7464 31.1734 27.5571C30.8376 28.3678 30.3454 29.1044 29.7249 29.7249C28.4718 30.978 26.7722 31.682 25 31.682C23.2278 31.682 21.5282 30.978 20.2751 29.7249C19.022 28.4718 18.318 26.7722 18.318 25C18.318 23.2278 19.022 21.5282 20.2751 20.2751ZM33.164 19.3131C33.3178 19.168 33.4409 18.9936 33.526 18.8002C33.6111 18.6067 33.6566 18.3981 33.6597 18.1867C33.6628 17.9754 33.6234 17.7656 33.5439 17.5697C33.4645 17.3738 33.3465 17.1959 33.197 17.0464C33.0476 16.8969 32.8696 16.779 32.6738 16.6995C32.4779 16.6201 32.2681 16.5807 32.0567 16.5838C31.8454 16.5869 31.6368 16.6323 31.4433 16.7175C31.2498 16.8026 31.0754 16.9257 30.9304 17.0795C30.6483 17.3785 30.4938 17.7757 30.4998 18.1867C30.5058 18.5978 30.6718 18.9903 30.9625 19.281C31.2531 19.5717 31.6457 19.7376 32.0567 19.7436C32.4678 19.7496 32.865 19.5952 33.164 19.3131Z" fill="#2DCC70"/>
</svg>
