<svg width="50" height="50" viewBox="0 0 50 50" fill="none" xmlns="http://www.w3.org/2000/svg">
<circle cx="25" cy="25" r="25" fill="white"/>
<path fill-rule="evenodd" clip-rule="evenodd" d="M30.6862 27.1798C30.3493 27.0121 28.6978 26.2044 28.3903 26.0919C28.0828 25.9805 27.859 25.9254 27.634 26.2606C27.4102 26.5936 26.767 27.3474 26.5715 27.5701C26.3748 27.794 26.1792 27.821 25.8435 27.6545C25.5077 27.4858 24.4248 27.1336 23.1418 25.9951C22.1436 25.1086 21.4688 24.014 21.2732 23.6788C21.0776 23.3447 21.2517 23.1635 21.4202 22.997C21.5716 22.8474 21.7559 22.6067 21.9243 22.412C22.0928 22.2163 22.1481 22.0768 22.2601 21.8529C22.3731 21.6302 22.3166 21.4355 22.2318 21.2679C22.1481 21.1003 21.4767 19.4544 21.1963 18.785C20.9239 18.1337 20.647 18.2225 20.4412 18.2113C20.2445 18.2023 20.0207 18.2 19.7969 18.2C19.5731 18.2 19.2091 18.2833 18.9016 18.6185C18.593 18.9527 17.726 19.7615 17.726 21.4074C17.726 23.0522 18.9287 24.6418 19.0972 24.8656C19.2656 25.0884 21.4654 28.4656 24.8351 29.9135C25.6377 30.2578 26.2628 30.4636 26.7501 30.6166C27.5549 30.872 28.2874 30.836 28.8662 30.7494C29.5105 30.6538 30.8535 29.9405 31.1338 29.1598C31.413 28.379 31.413 27.7096 31.3294 27.5701C31.2457 27.4306 31.0219 27.3474 30.685 27.1798H30.6862ZM24.5571 35.5081H24.5525C22.5511 35.5085 20.5863 34.973 18.8643 33.9579L18.4573 33.7171L14.2273 34.8219L15.3566 30.7179L15.091 30.2971C13.972 28.5245 13.3799 26.473 13.3829 24.3796C13.3852 18.2484 18.3974 13.2602 24.5616 13.2602C27.5459 13.2602 30.3516 14.4189 32.4609 16.5204C33.5013 17.5516 34.3259 18.7778 34.8871 20.1282C35.4482 21.4785 35.7347 22.9262 35.7301 24.3875C35.7278 30.5188 30.7155 35.5081 24.5571 35.5081ZM34.0661 14.924C32.8206 13.6763 31.3387 12.687 29.7062 12.0134C28.0737 11.3399 26.3231 10.9954 24.5559 11C17.1472 11 11.1153 17.0019 11.113 24.3785C11.1119 26.7365 11.7302 29.0383 12.907 31.0666L11 38L18.1261 36.1393C20.0974 37.2081 22.3065 37.7682 24.5514 37.7682H24.5571C31.9658 37.7682 37.9977 31.7664 37.9999 24.3886C38.0054 22.6306 37.6605 20.8889 36.9853 19.2643C36.3101 17.6397 35.3179 16.1645 34.0661 14.924Z" fill="#2DCC70"/>
</svg>
